<svg width="3027" height="1012" xmlns="http://www.w3.org/2000/svg" xmlns:xlink="http://www.w3.org/1999/xlink" xml:space="preserve" overflow="hidden"><defs><clipPath id="clip0"><rect x="953" y="668" width="3027" height="1012"/></clipPath></defs><g clip-path="url(#clip0)" transform="translate(-953 -668)"><rect x="955.5" y="738.5" width="385" height="385" stroke="#000000" stroke-width="4.58333" stroke-miterlimit="8" fill="#F5A700"/><rect x="1007.5" y="788.5" width="385" height="386" stroke="#000000" stroke-width="4.58333" stroke-miterlimit="8" fill="#F5A700"/><rect x="1076.5" y="855.5" width="386" height="386" stroke="#000000" stroke-width="4.58333" stroke-miterlimit="8" fill="#F5A700"/><rect x="1149.5" y="922.5" width="386" height="386" stroke="#000000" stroke-width="4.58333" stroke-miterlimit="8" fill="#F5A700"/><rect x="1221.5" y="977.5" width="386" height="385" stroke="#000000" stroke-width="4.58333" stroke-miterlimit="8" fill="#F5A700"/><rect x="1905.5" y="1064.5" width="173" height="173" stroke="#000000" stroke-width="4.58333" stroke-miterlimit="8" fill="#F5A700"/><rect x="1944.5" y="1095.5" width="173" height="173" stroke="#000000" stroke-width="4.58333" stroke-miterlimit="8" fill="#F5A700"/><rect x="1993.5" y="1142.5" width="174" height="174" stroke="#000000" stroke-width="4.58333" stroke-miterlimit="8" fill="#F5A700"/><rect x="2043.5" y="1189.5" width="173" height="173" stroke="#000000" stroke-width="4.58333" stroke-miterlimit="8" fill="#F5A700"/><path d="M3112.5 779C3112.5 719.077 3160.85 670.5 3220.5 670.5 3280.15 670.5 3328.5 719.077 3328.5 779 3328.5 838.923 3280.15 887.5 3220.5 887.5 3160.85 887.5 3112.5 838.923 3112.5 779Z" stroke="#000000" stroke-width="4.58333" stroke-miterlimit="8" fill="#F5A700" fill-rule="evenodd"/><path d="M3112.5 1034.5C3112.5 974.853 3160.85 926.5 3220.5 926.5 3280.15 926.5 3328.5 974.853 3328.5 1034.5 3328.5 1094.15 3280.15 1142.5 3220.5 1142.5 3160.85 1142.5 3112.5 1094.15 3112.5 1034.5Z" stroke="#B47A00" stroke-width="4.58333" stroke-miterlimit="8" fill="#F5A700" fill-rule="evenodd"/><path d="M3112.5 1300C3112.5 1240.08 3160.85 1191.5 3220.5 1191.5 3280.15 1191.5 3328.5 1240.08 3328.5 1300 3328.5 1359.92 3280.15 1408.5 3220.5 1408.5 3160.85 1408.5 3112.5 1359.92 3112.5 1300Z" stroke="#B47A00" stroke-width="4.58333" stroke-miterlimit="8" fill="#F5A700" fill-rule="evenodd"/><path d="M3112.5 1031C3112.5 971.077 3160.85 922.5 3220.5 922.5 3280.15 922.5 3328.5 971.077 3328.5 1031 3328.5 1090.92 3280.15 1139.5 3220.5 1139.5 3160.85 1139.5 3112.5 1090.92 3112.5 1031Z" stroke="#000000" stroke-width="4.58333" stroke-miterlimit="8" fill="#F5A700" fill-rule="evenodd"/><path d="M3112.5 1296.5C3112.5 1236.85 3160.85 1188.5 3220.5 1188.5 3280.15 1188.5 3328.5 1236.85 3328.5 1296.5 3328.5 1356.15 3280.15 1404.5 3220.5 1404.5 3160.85 1404.5 3112.5 1356.15 3112.5 1296.5Z" stroke="#000000" stroke-width="4.58333" stroke-miterlimit="8" fill="#F5A700" fill-rule="evenodd"/><path d="M3112.5 1569.5C3112.5 1509.85 3160.85 1461.5 3220.5 1461.5 3280.15 1461.5 3328.5 1509.85 3328.5 1569.5 3328.5 1629.15 3280.15 1677.5 3220.5 1677.5 3160.85 1677.5 3112.5 1629.15 3112.5 1569.5Z" stroke="#000000" stroke-width="4.58333" stroke-miterlimit="8" fill="#F5A700" fill-rule="evenodd"/><path d="M3328.5 779.5 3760.61 1025.1" stroke="#000000" stroke-width="4.58333" stroke-miterlimit="8" fill="none" fill-rule="evenodd"/><path d="M0 0 432.105 6.37119" stroke="#000000" stroke-width="4.58333" stroke-miterlimit="8" fill="none" fill-rule="evenodd" transform="matrix(1 0 0 -1 3328.5 1030.87)"/><path d="M3328.5 1296.5 3760.61 1347.77" stroke="#000000" stroke-width="4.58333" stroke-miterlimit="8" fill="none" fill-rule="evenodd"/><path d="M0 0 432.106 222.012" stroke="#000000" stroke-width="4.58333" stroke-miterlimit="8" fill="none" fill-rule="evenodd" transform="matrix(1 0 0 -1 3328.5 1569.51)"/><rect x="1478.5" y="1001.5" width="96.9999" height="91.0001" stroke="#00BAFD" stroke-width="6.875" stroke-miterlimit="8" stroke-dasharray="6.875 6.875" fill="none"/><path d="M1575.5 1046.5 2081.25 1234.35" stroke="#00BAFD" stroke-width="6.875" stroke-miterlimit="8" stroke-dasharray="6.875 6.875" fill="none" fill-rule="evenodd"/><path d="M2044.5 1365.5 2598.38 1421.25" stroke="#00BAFD" stroke-width="6.875" stroke-miterlimit="8" stroke-dasharray="6.875 6.875" fill="none" fill-rule="evenodd"/><path d="M0 0 530.321 18.0136" stroke="#00BAFD" stroke-width="6.875" stroke-miterlimit="8" stroke-dasharray="6.875 6.875" fill="none" fill-rule="evenodd" transform="matrix(1 0 0 -1 2078.5 1062.51)"/><rect x="2600.5" y="918.5" width="128" height="127" stroke="#000000" stroke-width="4.58333" stroke-miterlimit="8" fill="#F5A700"/><rect x="2600.5" y="1170.5" width="128" height="126" stroke="#000000" stroke-width="4.58333" stroke-miterlimit="8" fill="#F5A700"/><rect x="2600.5" y="1044.5" width="128" height="126" stroke="#000000" stroke-width="4.58333" stroke-miterlimit="8" fill="#F5A700"/><rect x="2600.5" y="1294.5" width="127" height="126" stroke="#000000" stroke-width="4.58333" stroke-miterlimit="8" fill="#F5A700"/><path d="M0 0 384.192 202.847" stroke="#000000" stroke-width="4.58333" stroke-miterlimit="8" fill="none" fill-rule="evenodd" transform="matrix(1 0 0 -1 2728.5 982.347)"/><path d="M0 0 384.194 76.3944" stroke="#000000" stroke-width="4.58333" stroke-miterlimit="8" fill="none" fill-rule="evenodd" transform="matrix(1 0 0 -1 2728.5 1107.89)"/><path d="M2728.5 1233.5 3112.69 1296.72" stroke="#000000" stroke-width="4.58333" stroke-miterlimit="8" fill="none" fill-rule="evenodd"/><path d="M2727.5 1357.5 3111.94 1569.29" stroke="#000000" stroke-width="4.58333" stroke-miterlimit="8" fill="none" fill-rule="evenodd"/><path d="M0 0 387.361 62.8061" stroke="#00BAFD" stroke-width="6.875" stroke-miterlimit="8" stroke-dasharray="6.875 6.875" fill="none" fill-rule="evenodd" transform="matrix(1 0 0 -1 2211.5 1360.31)"/><path d="M0 0 690.836 145.126" stroke="#00BAFD" stroke-width="6.875" stroke-miterlimit="8" stroke-dasharray="6.875 6.875" fill="none" fill-rule="evenodd" transform="matrix(1 0 0 -1 1912.5 1064.63)"/><path d="M3760.5 1024.5C3760.5 964.853 3809.08 916.5 3869 916.5 3928.92 916.5 3977.5 964.853 3977.5 1024.5 3977.5 1084.15 3928.92 1132.5 3869 1132.5 3809.08 1132.5 3760.5 1084.15 3760.5 1024.5Z" stroke="#000000" stroke-width="4.58333" stroke-miterlimit="8" fill="#F5A700" fill-rule="evenodd"/><path d="M3760.5 1347.5C3760.5 1287.85 3809.08 1239.5 3869 1239.5 3928.92 1239.5 3977.5 1287.85 3977.5 1347.5 3977.5 1407.15 3928.92 1455.5 3869 1455.5 3809.08 1455.5 3760.5 1407.15 3760.5 1347.5Z" stroke="#000000" stroke-width="4.58333" stroke-miterlimit="8" fill="#F5A700" fill-rule="evenodd"/><path d="M0 0 432.35 274.027" stroke="#000000" stroke-width="4.58333" stroke-miterlimit="8" fill="none" fill-rule="evenodd" transform="matrix(1 0 0 -1 3328.5 1298.53)"/><path d="M3330.5 781.5 3761.19 1347.83" stroke="#000000" stroke-width="4.58333" stroke-miterlimit="8" fill="none" fill-rule="evenodd"/><path d="M3324.5 1034.5 3761.48 1347.79" stroke="#000000" stroke-width="4.58333" stroke-miterlimit="8" fill="none" fill-rule="evenodd"/><path d="M0 0 436.647 550.093" stroke="#000000" stroke-width="4.58333" stroke-miterlimit="8" fill="none" fill-rule="evenodd" transform="matrix(1 0 0 -1 3324.5 1574.59)"/></g></svg>