<svg width="3362" height="1703" xmlns="http://www.w3.org/2000/svg" xmlns:xlink="http://www.w3.org/1999/xlink" xml:space="preserve" overflow="hidden"><defs><clipPath id="clip0"><rect x="361" y="623" width="3362" height="1703"/></clipPath></defs><g clip-path="url(#clip0)" transform="translate(-361 -623)"><rect x="1735.5" y="1206.74" width="42.7552" height="891.756" fill="#00B0F0"/><path d="M1778.26 1206.74 2273.5 711.5 2273.5 1603.26 1778.26 2098.5Z" fill="#008DC1" fill-rule="evenodd"/><path d="M1735.5 1206.74 2230.74 711.5 2273.5 711.5 1778.26 1206.74Z" fill="#32BFF3" fill-rule="evenodd"/><path d="M1735.5 1206.74 2230.74 711.5 2273.5 711.5 2273.5 1603.26 1778.26 2098.5 1735.5 2098.5ZM1735.5 1206.74 1778.26 1206.74 2273.5 711.5M1778.26 1206.74 1778.26 2098.5" stroke="#000000" stroke-width="3.4375" stroke-miterlimit="8" fill="none" fill-rule="evenodd"/><rect x="1745.5" y="1206.74" width="42.7552" height="891.756" fill="#00B0F0"/><path d="M1788.26 1206.74 2283.5 711.5 2283.5 1603.26 1788.26 2098.5Z" fill="#008DC1" fill-rule="evenodd"/><path d="M1745.5 1206.74 2240.74 711.5 2283.5 711.5 1788.26 1206.74Z" fill="#32BFF3" fill-rule="evenodd"/><path d="M1745.5 1206.74 2240.74 711.5 2283.5 711.5 2283.5 1603.26 1788.26 2098.5 1745.5 2098.5ZM1745.5 1206.74 1788.26 1206.74 2283.5 711.5M1788.26 1206.74 1788.26 2098.5" stroke="#000000" stroke-width="3.4375" stroke-miterlimit="8" fill="none" fill-rule="evenodd"/><rect x="573.5" y="984.844" width="23.5981" height="820.655" fill="#F5A700"/><path d="M597.098 984.844 870.442 711.5 870.442 1532.16 597.098 1805.5Z" fill="#C58600" fill-rule="evenodd"/><path d="M573.5 984.844 846.844 711.5 870.442 711.5 597.098 984.844Z" fill="#F7B832" fill-rule="evenodd"/><path d="M573.5 984.844 846.844 711.5 870.442 711.5 870.442 1532.16 597.098 1805.5 573.5 1805.5ZM573.5 984.844 597.098 984.844 870.442 711.5M597.098 984.844 597.098 1805.5" stroke="#000000" stroke-width="3.4375" stroke-miterlimit="8" fill="none" fill-rule="evenodd"/><rect x="633.5" y="984.844" width="23.5981" height="820.655" fill="#F5A700"/><path d="M657.098 984.844 930.443 711.5 930.443 1532.16 657.098 1805.5Z" fill="#C58600" fill-rule="evenodd"/><path d="M633.5 984.844 906.845 711.5 930.443 711.5 657.098 984.844Z" fill="#F7B832" fill-rule="evenodd"/><path d="M633.5 984.844 906.845 711.5 930.443 711.5 930.443 1532.16 657.098 1805.5 633.5 1805.5ZM633.5 984.844 657.098 984.844 930.443 711.5M657.098 984.844 657.098 1805.5" stroke="#000000" stroke-width="3.4375" stroke-miterlimit="8" fill="none" fill-rule="evenodd"/><rect x="698.5" y="984.844" width="23.5981" height="820.655" fill="#7FDCFD"/><path d="M722.098 984.844 995.443 711.5 995.443 1532.16 722.098 1805.5Z" fill="#66B1CB" fill-rule="evenodd"/><path d="M698.5 984.844 971.844 711.5 995.443 711.5 722.098 984.844Z" fill="#98E3FD" fill-rule="evenodd"/><path d="M698.5 984.844 971.844 711.5 995.443 711.5 995.443 1532.16 722.098 1805.5 698.5 1805.5ZM698.5 984.844 722.098 984.844 995.443 711.5M722.098 984.844 722.098 1805.5" stroke="#000000" stroke-width="3.4375" stroke-miterlimit="8" fill="none" fill-rule="evenodd"/><rect x="941.5" y="1084.59" width="18.9134" height="655.914" fill="#F5A700"/><path d="M960.413 1084.59 1179.5 865.5 1179.5 1521.41 960.413 1740.5Z" fill="#C58600" fill-rule="evenodd"/><path d="M941.5 1084.59 1160.59 865.5 1179.5 865.5 960.413 1084.59Z" fill="#F7B832" fill-rule="evenodd"/><path d="M941.5 1084.59 1160.59 865.5 1179.5 865.5 1179.5 1521.41 960.413 1740.5 941.5 1740.5ZM941.5 1084.59 960.413 1084.59 1179.5 865.5M960.413 1084.59 960.413 1740.5" stroke="#000000" stroke-width="3.4375" stroke-miterlimit="8" fill="none" fill-rule="evenodd"/><rect x="1000.5" y="1084.59" width="18.9134" height="655.914" fill="#F5A700"/><path d="M1019.41 1084.59 1238.5 865.5 1238.5 1521.41 1019.41 1740.5Z" fill="#C58600" fill-rule="evenodd"/><path d="M1000.5 1084.59 1219.59 865.5 1238.5 865.5 1019.41 1084.59Z" fill="#F7B832" fill-rule="evenodd"/><path d="M1000.5 1084.59 1219.59 865.5 1238.5 865.5 1238.5 1521.41 1019.41 1740.5 1000.5 1740.5ZM1000.5 1084.59 1019.41 1084.59 1238.5 865.5M1019.41 1084.59 1019.41 1740.5" stroke="#000000" stroke-width="3.4375" stroke-miterlimit="8" fill="none" fill-rule="evenodd"/><rect x="1076.5" y="1080.67" width="18.834" height="656.835" fill="#7FDCFD"/><path d="M1095.33 1080.67 1313.5 862.5 1313.5 1519.33 1095.33 1737.5Z" fill="#66B1CB" fill-rule="evenodd"/><path d="M1076.5 1080.67 1294.67 862.5 1313.5 862.5 1095.33 1080.67Z" fill="#98E3FD" fill-rule="evenodd"/><path d="M1076.5 1080.67 1294.67 862.5 1313.5 862.5 1313.5 1519.33 1095.33 1737.5 1076.5 1737.5ZM1076.5 1080.67 1095.33 1080.67 1313.5 862.5M1095.33 1080.67 1095.33 1737.5" stroke="#000000" stroke-width="3.4375" stroke-miterlimit="8" fill="none" fill-rule="evenodd"/><rect x="1382.5" y="1141.35" width="14.146" height="492.146" fill="#F5A700"/><path d="M1396.65 1141.35 1560.5 977.5 1560.5 1469.65 1396.65 1633.5Z" fill="#C58600" fill-rule="evenodd"/><path d="M1382.5 1141.35 1546.35 977.5 1560.5 977.5 1396.65 1141.35Z" fill="#F7B832" fill-rule="evenodd"/><path d="M1382.5 1141.35 1546.35 977.5 1560.5 977.5 1560.5 1469.65 1396.65 1633.5 1382.5 1633.5ZM1382.5 1141.35 1396.65 1141.35 1560.5 977.5M1396.65 1141.35 1396.65 1633.5" stroke="#000000" stroke-width="3.4375" stroke-miterlimit="8" fill="none" fill-rule="evenodd"/><rect x="1430.5" y="1139.27" width="14.2249" height="491.225" fill="#F5A700"/><path d="M1444.72 1139.27 1609.5 974.5 1609.5 1465.73 1444.72 1630.5Z" fill="#C58600" fill-rule="evenodd"/><path d="M1430.5 1139.27 1595.28 974.5 1609.5 974.5 1444.72 1139.27Z" fill="#F7B832" fill-rule="evenodd"/><path d="M1430.5 1139.27 1595.28 974.5 1609.5 974.5 1609.5 1465.73 1444.72 1630.5 1430.5 1630.5ZM1430.5 1139.27 1444.72 1139.27 1609.5 974.5M1444.72 1139.27 1444.72 1630.5" stroke="#000000" stroke-width="3.4375" stroke-miterlimit="8" fill="none" fill-rule="evenodd"/><rect x="1485.5" y="1143.35" width="14.146" height="492.146" fill="#7FDCFD"/><path d="M1499.65 1143.35 1663.5 979.5 1663.5 1471.65 1499.65 1635.5Z" fill="#66B1CB" fill-rule="evenodd"/><path d="M1485.5 1143.35 1649.35 979.5 1663.5 979.5 1499.65 1143.35Z" fill="#98E3FD" fill-rule="evenodd"/><path d="M1485.5 1143.35 1649.35 979.5 1663.5 979.5 1663.5 1471.65 1499.65 1635.5 1485.5 1635.5ZM1485.5 1143.35 1499.65 1143.35 1663.5 979.5M1499.65 1143.35 1499.65 1635.5" stroke="#000000" stroke-width="3.4375" stroke-miterlimit="8" fill="none" fill-rule="evenodd"/><rect x="1702.5" y="1357.24" width="30.2595" height="248.26" fill="#002060"/><path d="M1732.76 1357.24 1852.5 1237.5 1852.5 1485.76 1732.76 1605.5Z" fill="#001A4D" fill-rule="evenodd"/><path d="M1702.5 1357.24 1822.24 1237.5 1852.5 1237.5 1732.76 1357.24Z" fill="#324C7F" fill-rule="evenodd"/><path d="M1702.5 1357.24 1822.24 1237.5 1852.5 1237.5 1852.5 1485.76 1732.76 1605.5 1702.5 1605.5ZM1702.5 1357.24 1732.76 1357.24 1852.5 1237.5M1732.76 1357.24 1732.76 1605.5" stroke="#000000" stroke-width="3.4375" stroke-miterlimit="8" fill="none" fill-rule="evenodd"/><rect x="1770.5" y="1357.24" width="30.2595" height="248.26" fill="#002060"/><path d="M1800.76 1357.24 1920.5 1237.5 1920.5 1485.76 1800.76 1605.5Z" fill="#001A4D" fill-rule="evenodd"/><path d="M1770.5 1357.24 1890.24 1237.5 1920.5 1237.5 1800.76 1357.24Z" fill="#324C7F" fill-rule="evenodd"/><path d="M1770.5 1357.24 1890.24 1237.5 1920.5 1237.5 1920.5 1485.76 1800.76 1605.5 1770.5 1605.5ZM1770.5 1357.24 1800.76 1357.24 1920.5 1237.5M1800.76 1357.24 1800.76 1605.5" stroke="#000000" stroke-width="3.4375" stroke-miterlimit="8" fill="none" fill-rule="evenodd"/><rect x="1997.5" y="1142.35" width="14.146" height="492.146" fill="#7030A0"/><path d="M2011.65 1142.35 2175.5 978.5 2175.5 1470.65 2011.65 1634.5Z" fill="#5A2781" fill-rule="evenodd"/><path d="M1997.5 1142.35 2161.35 978.5 2175.5 978.5 2011.65 1142.35Z" fill="#8C59B3" fill-rule="evenodd"/><path d="M1997.5 1142.35 2161.35 978.5 2175.5 978.5 2175.5 1470.65 2011.65 1634.5 1997.5 1634.5ZM1997.5 1142.35 2011.65 1142.35 2175.5 978.5M2011.65 1142.35 2011.65 1634.5" stroke="#000000" stroke-width="3.4375" stroke-miterlimit="8" fill="none" fill-rule="evenodd"/><rect x="2046.5" y="1140.35" width="14.1459" height="492.146" fill="#F5A700"/><path d="M2060.65 1140.35 2224.5 976.5 2224.5 1468.65 2060.65 1632.5Z" fill="#C58600" fill-rule="evenodd"/><path d="M2046.5 1140.35 2210.35 976.5 2224.5 976.5 2060.65 1140.35Z" fill="#F7B832" fill-rule="evenodd"/><path d="M2046.5 1140.35 2210.35 976.5 2224.5 976.5 2224.5 1468.65 2060.65 1632.5 2046.5 1632.5ZM2046.5 1140.35 2060.65 1140.35 2224.5 976.5M2060.65 1140.35 2060.65 1632.5" stroke="#000000" stroke-width="3.4375" stroke-miterlimit="8" fill="none" fill-rule="evenodd"/><rect x="2101.5" y="1145.35" width="14.146" height="492.147" fill="#F5A700"/><path d="M2115.65 1145.35 2279.5 981.5 2279.5 1473.65 2115.65 1637.5Z" fill="#C58600" fill-rule="evenodd"/><path d="M2101.5 1145.35 2265.35 981.5 2279.5 981.5 2115.65 1145.35Z" fill="#F7B832" fill-rule="evenodd"/><path d="M2101.5 1145.35 2265.35 981.5 2279.5 981.5 2279.5 1473.65 2115.65 1637.5 2101.5 1637.5ZM2101.5 1145.35 2115.65 1145.35 2279.5 981.5M2115.65 1145.35 2115.65 1637.5" stroke="#000000" stroke-width="3.4375" stroke-miterlimit="8" fill="none" fill-rule="evenodd"/><rect x="2252.5" y="1079.59" width="18.9133" height="655.914" fill="#7030A0"/><path d="M2271.41 1079.59 2490.5 860.5 2490.5 1516.41 2271.41 1735.5Z" fill="#5A2781" fill-rule="evenodd"/><path d="M2252.5 1079.59 2471.59 860.5 2490.5 860.5 2271.41 1079.59Z" fill="#8C59B3" fill-rule="evenodd"/><path d="M2252.5 1079.59 2471.59 860.5 2490.5 860.5 2490.5 1516.41 2271.41 1735.5 2252.5 1735.5ZM2252.5 1079.59 2271.41 1079.59 2490.5 860.5M2271.41 1079.59 2271.41 1735.5" stroke="#000000" stroke-width="3.4375" stroke-miterlimit="8" fill="none" fill-rule="evenodd"/><rect x="2301.5" y="1076.59" width="18.9143" height="655.914" fill="#F5A700"/><path d="M2320.41 1076.59 2539.5 857.5 2539.5 1513.41 2320.41 1732.5Z" fill="#C58600" fill-rule="evenodd"/><path d="M2301.5 1076.59 2520.59 857.5 2539.5 857.5 2320.41 1076.59Z" fill="#F7B832" fill-rule="evenodd"/><path d="M2301.5 1076.59 2520.59 857.5 2539.5 857.5 2539.5 1513.41 2320.41 1732.5 2301.5 1732.5ZM2301.5 1076.59 2320.41 1076.59 2539.5 857.5M2320.41 1076.59 2320.41 1732.5" stroke="#000000" stroke-width="3.4375" stroke-miterlimit="8" fill="none" fill-rule="evenodd"/><rect x="2356.5" y="1081.59" width="18.9143" height="655.914" fill="#F5A700"/><path d="M2375.41 1081.59 2594.5 862.5 2594.5 1518.41 2375.41 1737.5Z" fill="#C58600" fill-rule="evenodd"/><path d="M2356.5 1081.59 2575.59 862.5 2594.5 862.5 2375.41 1081.59Z" fill="#F7B832" fill-rule="evenodd"/><path d="M2356.5 1081.59 2575.59 862.5 2594.5 862.5 2594.5 1518.41 2375.41 1737.5 2356.5 1737.5ZM2356.5 1081.59 2375.41 1081.59 2594.5 862.5M2375.41 1081.59 2375.41 1737.5" stroke="#000000" stroke-width="3.4375" stroke-miterlimit="8" fill="none" fill-rule="evenodd"/><rect x="2564.5" y="981.844" width="23.5981" height="820.656" fill="#7030A0"/><path d="M2588.1 981.844 2861.44 708.5 2861.44 1529.16 2588.1 1802.5Z" fill="#5A2781" fill-rule="evenodd"/><path d="M2564.5 981.844 2837.84 708.5 2861.44 708.5 2588.1 981.844Z" fill="#8C59B3" fill-rule="evenodd"/><path d="M2564.5 981.844 2837.84 708.5 2861.44 708.5 2861.44 1529.16 2588.1 1802.5 2564.5 1802.5ZM2564.5 981.844 2588.1 981.844 2861.44 708.5M2588.1 981.844 2588.1 1802.5" stroke="#000000" stroke-width="3.4375" stroke-miterlimit="8" fill="none" fill-rule="evenodd"/><rect x="2613.5" y="979.897" width="23.6028" height="819.603" fill="#F5A700"/><path d="M2637.1 979.897 2910.5 706.5 2910.5 1526.1 2637.1 1799.5Z" fill="#C58600" fill-rule="evenodd"/><path d="M2613.5 979.897 2886.9 706.5 2910.5 706.5 2637.1 979.897Z" fill="#F7B832" fill-rule="evenodd"/><path d="M2613.5 979.897 2886.9 706.5 2910.5 706.5 2910.5 1526.1 2637.1 1799.5 2613.5 1799.5ZM2613.5 979.897 2637.1 979.897 2910.5 706.5M2637.1 979.897 2637.1 1799.5" stroke="#000000" stroke-width="3.4375" stroke-miterlimit="8" fill="none" fill-rule="evenodd"/><rect x="2667.5" y="984.844" width="23.5981" height="820.655" fill="#F5A700"/><path d="M2691.1 984.844 2964.44 711.5 2964.44 1532.16 2691.1 1805.5Z" fill="#C58600" fill-rule="evenodd"/><path d="M2667.5 984.844 2940.84 711.5 2964.44 711.5 2691.1 984.844Z" fill="#F7B832" fill-rule="evenodd"/><path d="M2667.5 984.844 2940.84 711.5 2964.44 711.5 2964.44 1532.16 2691.1 1805.5 2667.5 1805.5ZM2667.5 984.844 2691.1 984.844 2964.44 711.5M2691.1 984.844 2691.1 1805.5" stroke="#000000" stroke-width="3.4375" stroke-miterlimit="8" fill="none" fill-rule="evenodd"/><rect x="2737.5" y="984.844" width="23.5981" height="820.655" fill="#07712C"/><path d="M2761.1 984.844 3034.44 711.5 3034.44 1532.16 2761.1 1805.5Z" fill="#065B23" fill-rule="evenodd"/><path d="M2737.5 984.844 3010.84 711.5 3034.44 711.5 2761.1 984.844Z" fill="#388D55" fill-rule="evenodd"/><path d="M2737.5 984.844 3010.84 711.5 3034.44 711.5 3034.44 1532.16 2761.1 1805.5 2737.5 1805.5ZM2737.5 984.844 2761.1 984.844 3034.44 711.5M2761.1 984.844 2761.1 1805.5" stroke="#000000" stroke-width="3.4375" stroke-miterlimit="8" fill="none" fill-rule="evenodd"/><path d="M1663.5 1871.5C1663.5 1943.02 1653.84 2001 1641.92 2001L1143.11 2001C1131.19 2001 1121.53 2058.98 1121.53 2130.5 1121.53 2058.98 1111.87 2001 1099.95 2001L595.083 2001C583.163 2001 573.5 1943.02 573.5 1871.5Z" fill="#FFFFFF" fill-rule="evenodd"/><path d="M1663.5 1871.5C1663.5 1943.02 1653.84 2001 1641.92 2001L1143.11 2001C1131.19 2001 1121.53 2058.98 1121.53 2130.5 1121.53 2058.98 1111.87 2001 1099.95 2001L595.083 2001C583.163 2001 573.5 1943.02 573.5 1871.5" stroke="#000000" stroke-width="4.58333" stroke-miterlimit="8" fill="none" fill-rule="evenodd"/><path d="M3055.5 1877.5C3055.5 1948.75 3045.87 2006.5 3034 2006.5L2535.03 2006.5C2523.16 2006.5 2513.53 2064.25 2513.53 2135.5 2513.53 2064.25 2503.9 2006.5 2492.03 2006.5L1987 2006.5C1975.13 2006.5 1965.5 1948.74 1965.5 1877.5Z" fill="#FFFFFF" fill-rule="evenodd"/><path d="M3055.5 1877.5C3055.5 1948.75 3045.87 2006.5 3034 2006.5L2535.03 2006.5C2523.16 2006.5 2513.53 2064.25 2513.53 2135.5 2513.53 2064.25 2503.9 2006.5 2492.03 2006.5L1987 2006.5C1975.13 2006.5 1965.5 1948.74 1965.5 1877.5" stroke="#000000" stroke-width="4.58333" stroke-miterlimit="8" fill="none" fill-rule="evenodd"/><text font-family="Avenir Next LT Pro,Avenir Next LT Pro_MSFontService,sans-serif" font-weight="400" font-size="83" transform="matrix(1 0 0 1 944.74 2256)">Encoder</text><text font-family="Avenir Next LT Pro,Avenir Next LT Pro_MSFontService,sans-serif" font-weight="400" font-size="83" transform="matrix(1 0 0 1 2373.67 2256)">Decoder</text><rect x="3450.5" y="947.5" width="265" height="90.0001" stroke="#000000" stroke-width="6.875" stroke-linejoin="round" stroke-miterlimit="10" fill="#F5A700"/><rect x="3449.5" y="1090.5" width="266" height="90.0001" stroke="#000000" stroke-width="6.875" stroke-linejoin="round" stroke-miterlimit="10" fill="#7FDCFD"/><rect x="3448.5" y="1226.5" width="266" height="90.0001" stroke="#000000" stroke-width="6.875" stroke-linejoin="round" stroke-miterlimit="10" fill="#7030A0"/><rect x="3453.5" y="1366.5" width="266" height="90.0001" stroke="#000000" stroke-width="6.875" stroke-linejoin="round" stroke-miterlimit="10" fill="#07712C"/><path d="M1654.78 979.515 1654.78 896C1654.78 895.051 1655.55 894.282 1656.5 894.282L2168.52 894.282C2169.47 894.282 2170.24 895.051 2170.24 896L2170.24 975.097 2166.8 975.097 2166.8 896 2168.52 897.719 1656.5 897.719 1658.22 896 1658.22 979.515ZM2186.05 948.463 2168.52 978.508 2150.99 948.463C2150.52 947.643 2150.79 946.591 2151.61 946.113 2152.43 945.634 2153.48 945.911 2153.96 946.731L2170 974.231 2167.03 974.231 2183.08 946.731C2183.55 945.911 2184.61 945.634 2185.43 946.113 2186.25 946.591 2186.52 947.643 2186.05 948.463Z"/><path d="M0-1.71875 0.593668-1.71875C1.54291-1.71875 2.31242-0.949239 2.31242 0L2.31242 94.0395 0.593668 92.3208 1164.29 92.3208 1162.57 94.0395 1162.57 14.9425 1166.01 14.9425 1166.01 94.0395C1166.01 94.9888 1165.24 95.7583 1164.29 95.7583L0.593668 95.7583C-0.355571 95.7583-1.12508 94.9888-1.12508 94.0395L-1.12508 0 0.593668 1.71875 0 1.71875ZM1146.76 41.5766 1164.29 11.5316 1181.81 41.5766C1182.29 42.3966 1182.02 43.449 1181.2 43.9273 1180.38 44.4056 1179.32 44.1286 1178.84 43.3087L1162.8 15.8087 1165.77 15.8087 1149.73 43.3087C1149.25 44.1286 1148.2 44.4056 1147.38 43.9273 1146.56 43.449 1146.28 42.3966 1146.76 41.5766Z" transform="matrix(1 0 0 -1 1316.5 872.039)"/><path d="M0-1.71875 4.62484-1.71875C5.57408-1.71875 6.34359-0.949239 6.34359 0L6.34359 90.2505 4.62484 88.5318 1857.31 88.5318 1855.59 90.2505 1855.59 11.1535 1859.03 11.1535 1859.03 90.2505C1859.03 91.1998 1858.26 91.9693 1857.31 91.9693L4.62484 91.9693C3.6756 91.9693 2.90609 91.1998 2.90609 90.2505L2.90609 0 4.62484 1.71875 0 1.71875ZM1839.79 37.7876 1857.31 7.74256 1874.84 37.7876C1875.32 38.6076 1875.04 39.66 1874.22 40.1383 1873.4 40.6166 1872.35 40.3396 1871.87 39.5197L1855.83 12.0197 1858.8 12.0197 1842.76 39.5197C1842.28 40.3396 1841.23 40.6166 1840.41 40.1383 1839.59 39.66 1839.31 38.6076 1839.79 37.7876Z" transform="matrix(1 0 0 -1 992.5 716.25)"/><text font-family="Avenir Next LT Pro,Avenir Next LT Pro_MSFontService,sans-serif" font-weight="400" font-size="83" transform="matrix(1 0 0 1 1609.86 727)">Skip Connection</text><text font-family="Avenir Next LT Pro,Avenir Next LT Pro_MSFontService,sans-serif" font-weight="400" font-size="83" transform="matrix(-1.83697e-16 -1 1 -1.83697e-16 464.904 1432)">Input</text><text font-family="Avenir Next LT Pro,Avenir Next LT Pro_MSFontService,sans-serif" font-weight="400" font-size="83" transform="matrix(-1.83697e-16 -1 1 -1.83697e-16 3201.53 1270)">Output</text></g></svg>